<?xml version="1.0" encoding="utf-8"?>
<!-- Generator: Adobe Illustrator 22.0.1, SVG Export Plug-In . SVG Version: 6.00 Build 0)  -->
<svg version="1.1" id="Layer_1" xmlns="http://www.w3.org/2000/svg" xmlns:xlink="http://www.w3.org/1999/xlink" x="0px" y="0px"
	 viewBox="0 0 730.2 304.3" style="enable-background:new 0 0 730.2 304.3;" xml:space="preserve">
<style type="text/css">
	.st0{fill:#3C3C3B;}
	.st1{fill:url(#SVGID_1_);}
	.st2{fill:#1A1A1A;}
	.st3{fill:none;stroke:#3C3C3B;stroke-width:2;stroke-miterlimit:10;}
	.st4{fill:#E8E8E8;}
	.st5{fill:url(#SVGID_2_);}
	.st6{fill:url(#SVGID_3_);}
	.st7{fill:url(#SVGID_4_);}
	.st8{fill:url(#SVGID_5_);}
</style>
<rect x="752.2" y="-242.9" style="fill:none;" width="479" height="74.4"/>
<text transform="matrix(1 0 0 1 881.0847 -208.7748)" style="font-family:'MyriadPro-Regular'; font-size:48px;">DA BENITO</text>
<g>
	<path class="st0" d="M419.4,28.8c0,0,0,0.3,0,0.9c0,0.3,0,0.6,0,1c0,0.2,0,0.4,0,0.7c0,0.2,0,0.5,0,0.8c-0.1,2.2-0.1,5.4,0.2,9.4
		c0,0.5,0.1,1,0.1,1.5c0,0.1,0,0.3,0,0.4c0,0.1,0,0.3,0,0.4c0,0.3,0.1,0.5,0.1,0.8c0.1,1.1,0.3,2.3,0.4,3.5c0.4,2.4,0.8,5,1.5,7.7
		c1.3,5.4,3.3,11.4,6.3,17.5c0.7,1.5,1.6,3.1,2.4,4.6c0.2,0.4,0.4,0.8,0.7,1.2c0.2,0.4,0.4,0.8,0.7,1.2c0.5,0.8,0.9,1.5,1.5,2.3
		c0.3,0.4,0.5,0.8,0.8,1.1c0.3,0.4,0.5,0.8,0.8,1.1c0.1,0.2,0.3,0.4,0.4,0.6c0.1,0.2,0.3,0.4,0.4,0.6c0.3,0.4,0.6,0.8,0.8,1.1
		c1.1,1.5,2.3,3,3.6,4.5c2.5,2.9,5.3,5.8,8.3,8.5c0.8,0.7,1.5,1.3,2.3,2c0.4,0.3,0.8,0.7,1.2,1c0.4,0.3,0.8,0.6,1.2,1
		c0.4,0.3,0.8,0.6,1.2,0.9c0.4,0.3,0.8,0.6,1.3,0.9c0.4,0.3,0.9,0.6,1.3,0.9c0.4,0.3,0.9,0.6,1.3,0.9c1.8,1.2,3.6,2.3,5.4,3.3
		l0.7,0.4l0.7,0.4c0.5,0.3,0.9,0.5,1.4,0.8c0.5,0.2,1,0.5,1.4,0.7c0.5,0.2,1,0.5,1.5,0.7c1,0.5,2,0.9,3,1.3c1,0.4,2,0.8,3,1.2
		c1,0.4,2.1,0.8,3.1,1.1c1,0.3,2.1,0.7,3.1,1c1.1,0.3,2.1,0.6,3.2,0.9c0.5,0.1,1.1,0.3,1.6,0.4c0.5,0.1,1.1,0.3,1.6,0.4
		c2.2,0.5,4.4,0.9,6.6,1.2c2.2,0.3,4.4,0.6,6.7,0.7l1.7,0.1l1.7,0.1c0.6,0,1.1,0,1.7,0l0.8,0l0.4,0l0.4,0l1.7,0c0.1,0,0.3,0,0.4,0
		l0.4,0l0.8,0l0.8,0l0.8-0.1c0.6,0,1.1-0.1,1.7-0.1c2.2-0.2,4.4-0.4,6.7-0.8c1.1-0.2,2.2-0.4,3.3-0.6c1.1-0.2,2.2-0.4,3.3-0.7
		c2.2-0.5,4.3-1.1,6.4-1.7c2.1-0.7,4.2-1.4,6.2-2.2c2-0.8,4-1.7,6-2.6c1.9-0.9,3.9-1.9,5.7-3c1.8-1.1,3.7-2.2,5.4-3.4
		c7-4.7,13.1-10.2,18.2-16.1c2.6-2.9,4.8-6,6.9-9c2-3,3.8-6.1,5.4-9.1c3.1-6.1,5.3-12,6.8-17.3c0.8-2.7,1.3-5.2,1.8-7.6
		c0.1-0.6,0.2-1.2,0.3-1.7c0.1-0.6,0.2-1.1,0.3-1.7c0.2-1.1,0.3-2.1,0.5-3.1c0.5-4,0.7-7.2,0.8-9.3c0-0.3,0-0.5,0-0.8
		c0-0.2,0-0.5,0-0.7c0-0.4,0-0.8,0-1c0-0.6,0-0.9,0-0.9s0,0.3,0.1,0.8c0,0.3,0.1,0.6,0.1,1c0,0.2,0,0.4,0.1,0.7c0,0.2,0,0.5,0,0.8
		c0,0.5,0.1,1.2,0.1,1.8c0,0.7,0,1.4,0.1,2.2c0,0.8,0,1.6,0,2.6c0,0.9,0,1.9-0.1,2.9c-0.1,1-0.1,2.1-0.2,3.2c0,0.6-0.1,1.1-0.1,1.7
		c-0.1,0.6-0.1,1.2-0.2,1.8c-0.3,2.5-0.7,5.1-1.3,7.9c-0.6,2.8-1.3,5.8-2.3,8.8c-1,3.1-2.2,6.2-3.6,9.5c-1.4,3.2-3.2,6.5-5.1,9.8
		c-1,1.6-2,3.3-3.2,4.9c-1.1,1.6-2.3,3.2-3.6,4.8c-5.1,6.4-11.4,12.4-18.7,17.6c-0.5,0.3-0.9,0.6-1.4,1c-0.5,0.3-0.9,0.6-1.4,0.9
		l-0.7,0.5l-0.7,0.5c-0.5,0.3-1,0.6-1.4,0.9c-1.9,1.2-4,2.3-6,3.3c-2.1,1-4.2,2-6.3,2.9c-2.2,0.9-4.4,1.7-6.6,2.4
		c-2.2,0.7-4.5,1.4-6.8,1.9c-2.3,0.6-4.6,1-7,1.4c-2.4,0.4-4.7,0.7-7.1,0.9c-0.6,0.1-1.2,0.1-1.8,0.1l-0.9,0.1l-0.9,0l-0.9,0l-0.5,0
		c-0.2,0-0.3,0-0.4,0l-1.7,0l-0.4,0l-0.5,0l-0.9,0c-0.6,0-1.2,0-1.8,0l-1.8-0.1l-1.8-0.1c-2.4-0.2-4.8-0.4-7.1-0.8l-0.9-0.1
		l-0.9-0.2c-0.6-0.1-1.2-0.2-1.8-0.3c-0.6-0.1-1.2-0.2-1.7-0.4c-0.6-0.1-1.2-0.3-1.7-0.4c-0.6-0.1-1.2-0.3-1.7-0.4
		c-0.6-0.1-1.1-0.3-1.7-0.4c-1.1-0.3-2.3-0.6-3.4-1c-1.1-0.3-2.2-0.7-3.3-1.1c-1.1-0.4-2.2-0.8-3.3-1.3c-1.1-0.4-2.1-0.9-3.2-1.4
		c-1.1-0.5-2.1-1-3.1-1.5c-0.5-0.3-1-0.5-1.5-0.8c-0.5-0.3-1-0.5-1.5-0.8c-0.5-0.3-1-0.6-1.5-0.8l-0.7-0.4l-0.7-0.4
		c-2-1.1-3.8-2.4-5.7-3.7c-0.5-0.3-0.9-0.6-1.4-1c-0.4-0.3-0.9-0.7-1.3-1c-0.4-0.3-0.9-0.7-1.3-1c-0.4-0.3-0.9-0.7-1.3-1
		c-1.7-1.4-3.3-2.8-4.9-4.3c-0.4-0.4-0.8-0.7-1.2-1.1l-0.6-0.6l-0.6-0.6c-0.4-0.4-0.7-0.8-1.1-1.1c-0.4-0.4-0.7-0.8-1.1-1.2
		c-0.4-0.4-0.7-0.8-1-1.2c-0.3-0.4-0.7-0.8-1-1.2c-0.7-0.8-1.3-1.6-1.9-2.4c-1.3-1.6-2.4-3.2-3.6-4.9c-0.3-0.4-0.5-0.8-0.8-1.2
		c-0.1-0.2-0.3-0.4-0.4-0.6c-0.1-0.2-0.3-0.4-0.4-0.6c-0.3-0.4-0.5-0.8-0.8-1.2c-0.2-0.4-0.5-0.8-0.7-1.2c-0.5-0.8-0.9-1.7-1.4-2.5
		c-0.2-0.4-0.4-0.8-0.7-1.2c-0.2-0.4-0.4-0.8-0.6-1.2c-0.8-1.7-1.6-3.3-2.3-4.9c-1.4-3.3-2.5-6.5-3.4-9.6c-0.9-3.1-1.5-6.1-2-8.9
		c-0.5-2.8-0.8-5.5-0.9-8c-0.1-2.5-0.2-4.7-0.2-6.8c0-0.5,0-1,0-1.5c0-0.5,0-1,0-1.4c0.1-0.9,0.1-1.8,0.2-2.5
		c0.1-0.8,0.1-1.5,0.2-2.2c0.1-0.7,0.2-1.3,0.2-1.8c0-0.3,0.1-0.5,0.1-0.8c0-0.2,0.1-0.5,0.1-0.7c0.1-0.4,0.1-0.8,0.2-1
		C419.4,29,419.4,28.8,419.4,28.8z"/>
	<linearGradient id="SVGID_1_" gradientUnits="userSpaceOnUse" x1="429.8235" y1="72.6118" x2="588.6254" y2="72.6118">
		<stop  offset="0" style="stop-color:#307F26"/>
		<stop  offset="1.081735e-02" style="stop-color:#39822C"/>
		<stop  offset="9.133628e-02" style="stop-color:#719E58"/>
		<stop  offset="0.1708" style="stop-color:#9CBA88"/>
		<stop  offset="0.2472" style="stop-color:#BFD2B2"/>
		<stop  offset="0.32" style="stop-color:#DBE5D4"/>
		<stop  offset="0.3882" style="stop-color:#EFF3EC"/>
		<stop  offset="0.4501" style="stop-color:#FBFCFA"/>
		<stop  offset="0.5" style="stop-color:#FFFFFF"/>
		<stop  offset="0.5557" style="stop-color:#FEFCFB"/>
		<stop  offset="0.6177" style="stop-color:#FBF1ED"/>
		<stop  offset="0.6827" style="stop-color:#F5DED5"/>
		<stop  offset="0.7499" style="stop-color:#EDC4B4"/>
		<stop  offset="0.8187" style="stop-color:#E2A18B"/>
		<stop  offset="0.8888" style="stop-color:#D5765C"/>
		<stop  offset="0.9587" style="stop-color:#C64130"/>
		<stop  offset="1" style="stop-color:#BD1D1D"/>
	</linearGradient>
	<path class="st1" d="M542.1,36.2c-24.1,18.5-44.2,24.3-97.7,16.3c-4.3-0.7-10.3-0.9-14.5-0.7c7.2,35.9,40.7,63,78.7,63
		c42.5,0,78.6-33.7,80.1-75.9C572.1,30.7,555.2,26.1,542.1,36.2z"/>
</g>
<path class="st0" d="M40.8,141.2c7.7-1.2,16.9-2,27-2c18.2,0,31.2,4.2,39.8,12.2c8.7,8,13.8,19.4,13.8,35.3c0,16-5,29.1-14.1,38.2
	C98,234,82.9,239,63.8,239c-9,0-16.6-0.4-23-1.2V141.2z M53.4,228.1c3.2,0.6,7.9,0.7,12.8,0.7c27.1,0,41.8-15.2,41.8-41.7
	c0.1-23.2-13-37.9-39.8-37.9c-6.6,0-11.5,0.6-14.9,1.3V228.1z"/>
<path class="st0" d="M151.6,207.2l-10.2,30.9h-13.1l33.4-98.2H177l33.5,98.2h-13.5l-10.5-30.9H151.6z M183.8,197.3l-9.6-28.3
	c-2.2-6.4-3.6-12.2-5.1-17.9h-0.3c-1.5,5.8-3.1,11.8-5,17.8l-9.6,28.4H183.8z"/>
<path class="st0" d="M255.8,141.2c5.5-1.2,14.3-2,23.2-2c12.7,0,20.8,2.2,27,7.1c5.1,3.8,8.2,9.6,8.2,17.3c0,9.5-6.3,17.8-16.6,21.6
	v0.3c9.3,2.3,20.2,10.1,20.2,24.6c0,8.4-3.3,14.9-8.3,19.7c-6.8,6.3-17.9,9.2-33.9,9.2c-8.7,0-15.4-0.6-19.7-1.2V141.2z
	 M268.4,181.5H280c13.4,0,21.3-7,21.3-16.5c0-11.5-8.7-16-21.6-16c-5.8,0-9.2,0.4-11.2,0.9V181.5z M268.4,228.5
	c2.5,0.4,6.1,0.6,10.6,0.6c13.1,0,25.2-4.8,25.2-19.1c0-13.4-11.5-18.9-25.3-18.9h-10.5V228.5z"/>
<path class="st0" d="M385.6,192.1h-38.2v35.4h42.5v10.6h-55.2v-98.2h53v10.6h-40.4v31h38.2V192.1z"/>
<path class="st0" d="M406.4,238.1v-98.2h13.8l31.5,49.7c7.3,11.5,13,21.9,17.6,31.9l0.3-0.1c-1.2-13.1-1.5-25.1-1.5-40.4v-41.1h11.9
	v98.2h-12.8l-31.2-49.8c-6.8-10.9-13.4-22.1-18.4-32.8l-0.4,0.1c0.7,12.4,1,24.2,1,40.5v42H406.4z"/>
<g>
	<path class="st2" d="M512.4,141.4l-0.9,0l-0.9,0l-0.5,0c-0.2,0-0.3,0-0.4,0l-1.7,0l-0.4,0l-0.5,0l-0.9,0c-0.6,0-1.2,0-1.8,0
		l-1.8-0.1l-0.3,0v96.8h12.7v-96.9c-0.5,0-1.1,0.1-1.6,0.1L512.4,141.4z"/>
</g>
<path class="st0" d="M555.7,150.7h-29.9v-10.8h72.7v10.8h-30v87.4h-12.8V150.7z"/>
<path class="st0" d="M689.4,188c0,33.8-20.5,51.7-45.6,51.7c-25.9,0-44.1-20.1-44.1-49.8c0-31.2,19.4-51.6,45.6-51.6
	C672.1,138.3,689.4,158.9,689.4,188z M613.2,189.6c0,21,11.4,39.8,31.3,39.8c20.1,0,31.5-18.5,31.5-40.8c0-19.5-10.2-39.9-31.3-39.9
	C623.7,148.7,613.2,168.1,613.2,189.6z"/>
<g>
	<g>
		<path class="st0" d="M40.8,52.9c1.4-0.3,3.3-0.4,5.2-0.4c2.9,0,4.8,0.5,6.1,1.7c1.1,0.9,1.6,2.4,1.6,4c0,2.8-1.7,4.6-3.9,5.3v0.1
			c1.6,0.6,2.6,2.1,3.1,4.2c0.7,2.9,1.2,4.9,1.6,5.8h-2.8c-0.3-0.6-0.8-2.4-1.4-5c-0.6-2.9-1.7-4-4.2-4.1h-2.5v9.1h-2.7V52.9z
			 M43.5,62.4h2.8c2.9,0,4.7-1.6,4.7-4c0-2.7-2-3.9-4.8-3.9c-1.3,0-2.2,0.1-2.7,0.2V62.4z"/>
		<path class="st0" d="M66.4,52.6v21h-2.7v-21H66.4z"/>
		<path class="st0" d="M77,70.2c1.2,0.7,3,1.4,4.8,1.4c2.8,0,4.4-1.5,4.4-3.6c0-2-1.1-3.1-3.9-4.2c-3.4-1.2-5.5-3-5.5-5.9
			c0-3.3,2.7-5.7,6.8-5.7c2.1,0,3.7,0.5,4.6,1l-0.7,2.2c-0.7-0.4-2.1-1-4-1c-2.9,0-3.9,1.7-3.9,3.1c0,2,1.3,2.9,4.2,4
			c3.5,1.4,5.3,3.1,5.3,6.2c0,3.2-2.4,6-7.3,6c-2,0-4.2-0.6-5.3-1.3L77,70.2z"/>
		<path class="st0" d="M102.9,54.9h-6.4v-2.3H112v2.3h-6.4v18.7h-2.7V54.9z"/>
		<path class="st0" d="M137.6,62.8c0,7.2-4.4,11-9.7,11c-5.5,0-9.4-4.3-9.4-10.6c0-6.7,4.1-11,9.7-11
			C133.9,52.2,137.6,56.6,137.6,62.8z M121.3,63.2c0,4.5,2.4,8.5,6.7,8.5c4.3,0,6.7-3.9,6.7-8.7c0-4.2-2.2-8.5-6.7-8.5
			C123.6,54.4,121.3,58.6,121.3,63.2z"/>
		<path class="st0" d="M147.3,52.9c1.4-0.3,3.3-0.4,5.2-0.4c2.9,0,4.8,0.5,6.1,1.7c1.1,0.9,1.6,2.4,1.6,4c0,2.8-1.7,4.6-3.9,5.3v0.1
			c1.6,0.6,2.6,2.1,3.1,4.2c0.7,2.9,1.2,4.9,1.6,5.8h-2.8c-0.3-0.6-0.8-2.4-1.4-5c-0.6-2.9-1.7-4-4.2-4.1H150v9.1h-2.7V52.9z
			 M150,62.4h2.8c2.9,0,4.7-1.6,4.7-4c0-2.7-2-3.9-4.8-3.9c-1.3,0-2.2,0.1-2.7,0.2V62.4z"/>
		<path class="st0" d="M173.8,66.9l-2.2,6.6h-2.8l7.1-21h3.3l7.1,21h-2.9l-2.2-6.6H173.8z M180.7,64.8l-2.1-6
			c-0.5-1.4-0.8-2.6-1.1-3.8h-0.1c-0.3,1.2-0.7,2.5-1.1,3.8l-2.1,6.1H180.7z"/>
		<path class="st0" d="M195.7,73.5v-21h3l6.7,10.6c1.6,2.5,2.8,4.7,3.8,6.8l0.1,0c-0.2-2.8-0.3-5.3-0.3-8.6v-8.8h2.5v21h-2.7
			L202,62.9c-1.5-2.3-2.9-4.7-3.9-7l-0.1,0c0.2,2.6,0.2,5.2,0.2,8.6v9H195.7z"/>
		<path class="st0" d="M226.3,54.9h-6.4v-2.3h15.5v2.3H229v18.7h-2.7V54.9z"/>
		<path class="st0" d="M254.8,63.7h-8.1v7.6h9.1v2.3H244v-21h11.3v2.3h-8.6v6.6h8.1V63.7z"/>
	</g>
</g>
<line class="st3" x1="255.8" y1="106.3" x2="40.8" y2="106.3"/>
<line class="st3" x1="255.8" y1="270.5" x2="689.4" y2="270.5"/>
<rect x="823.5" y="-145.5" class="st4" width="730.2" height="595.3"/>
<g>
	<path class="st0" d="M1222.6,73.8c0,0,0,0.2,0,0.5c0,0.2,0,0.4,0,0.7c0,0.1,0,0.3,0,0.4c0,0.2,0,0.3,0,0.5c0,1.4-0.1,3.4,0.1,5.9
		c0,0.3,0.1,0.6,0.1,1c0,0.1,0,0.2,0,0.2c0,0.1,0,0.2,0,0.3c0,0.2,0,0.3,0.1,0.5c0.1,0.7,0.2,1.4,0.3,2.2c0.2,1.5,0.5,3.1,0.9,4.8
		c0.8,3.4,2.1,7.1,3.9,11c0.5,1,1,1.9,1.5,2.9c0.1,0.2,0.3,0.5,0.4,0.7c0.1,0.2,0.3,0.5,0.4,0.7c0.3,0.5,0.6,1,0.9,1.4
		c0.2,0.2,0.3,0.5,0.5,0.7c0.2,0.2,0.3,0.5,0.5,0.7c0.1,0.1,0.2,0.2,0.2,0.4c0.1,0.1,0.2,0.2,0.3,0.4c0.2,0.2,0.3,0.5,0.5,0.7
		c0.7,0.9,1.5,1.9,2.3,2.8c1.6,1.8,3.3,3.6,5.2,5.3c0.5,0.4,1,0.8,1.5,1.2c0.2,0.2,0.5,0.4,0.7,0.6c0.3,0.2,0.5,0.4,0.8,0.6
		c0.3,0.2,0.5,0.4,0.8,0.6c0.3,0.2,0.5,0.4,0.8,0.6c0.3,0.2,0.5,0.4,0.8,0.6c0.3,0.2,0.5,0.4,0.8,0.6c1.1,0.7,2.2,1.4,3.4,2.1
		l0.4,0.2l0.4,0.2c0.3,0.2,0.6,0.3,0.9,0.5c0.3,0.2,0.6,0.3,0.9,0.5c0.3,0.2,0.6,0.3,0.9,0.4c0.6,0.3,1.2,0.6,1.9,0.8
		c0.6,0.3,1.3,0.5,1.9,0.8c0.6,0.3,1.3,0.5,1.9,0.7c0.7,0.2,1.3,0.4,2,0.6c0.7,0.2,1.3,0.4,2,0.6c0.3,0.1,0.7,0.2,1,0.3
		c0.3,0.1,0.7,0.2,1,0.2c1.4,0.3,2.7,0.6,4.1,0.8c1.4,0.2,2.8,0.3,4.2,0.4l1.1,0.1l1.1,0c0.4,0,0.7,0,1.1,0l0.5,0l0.2,0l0.3,0l1.1,0
		c0.1,0,0.2,0,0.3,0l0.3,0l0.5,0l0.5,0l0.5,0c0.3,0,0.7,0,1-0.1c1.4-0.1,2.8-0.3,4.2-0.5c0.7-0.1,1.4-0.2,2.1-0.4
		c0.7-0.1,1.4-0.3,2-0.4c1.4-0.3,2.7-0.7,4-1.1c1.3-0.4,2.6-0.9,3.9-1.4c1.3-0.5,2.5-1.1,3.8-1.6c1.2-0.6,2.4-1.2,3.6-1.9
		c1.2-0.7,2.3-1.4,3.4-2.1c4.4-2.9,8.2-6.4,11.4-10.1c1.6-1.8,3-3.7,4.3-5.6c1.3-1.9,2.4-3.8,3.4-5.7c2-3.8,3.3-7.5,4.3-10.9
		c0.5-1.7,0.8-3.3,1.1-4.8c0.1-0.4,0.1-0.7,0.2-1.1c0.1-0.4,0.1-0.7,0.2-1.1c0.1-0.7,0.2-1.3,0.3-2c0.3-2.5,0.4-4.5,0.5-5.9
		c0-0.2,0-0.3,0-0.5c0-0.2,0-0.3,0-0.4c0-0.3,0-0.5,0-0.7c0-0.4,0-0.5,0-0.5s0,0.2,0,0.5c0,0.2,0,0.4,0.1,0.7c0,0.1,0,0.3,0,0.4
		c0,0.2,0,0.3,0,0.5c0,0.3,0,0.7,0.1,1.1c0,0.4,0,0.9,0,1.4c0,0.5,0,1,0,1.6c0,0.6,0,1.2,0,1.8c0,0.6-0.1,1.3-0.1,2
		c0,0.4-0.1,0.7-0.1,1.1c0,0.4-0.1,0.7-0.1,1.1c-0.2,1.5-0.4,3.2-0.8,5c-0.4,1.8-0.8,3.6-1.4,5.5c-0.6,1.9-1.4,3.9-2.3,5.9
		c-0.9,2-2,4.1-3.2,6.2c-0.6,1-1.3,2.1-2,3.1c-0.7,1-1.5,2-2.3,3c-3.2,4-7.1,7.8-11.7,11c-0.3,0.2-0.6,0.4-0.9,0.6
		c-0.3,0.2-0.6,0.4-0.9,0.6l-0.4,0.3l-0.5,0.3c-0.3,0.2-0.6,0.4-0.9,0.6c-1.2,0.7-2.5,1.4-3.8,2.1c-1.3,0.6-2.6,1.3-4,1.8
		c-1.4,0.6-2.7,1.1-4.1,1.5c-1.4,0.5-2.8,0.9-4.3,1.2c-1.4,0.3-2.9,0.6-4.4,0.9c-1.5,0.2-3,0.4-4.5,0.5c-0.4,0-0.7,0.1-1.1,0.1
		l-0.6,0l-0.6,0l-0.6,0l-0.3,0c-0.1,0-0.2,0-0.3,0l-1.1,0l-0.3,0l-0.3,0l-0.6,0c-0.4,0-0.8,0-1.1,0l-1.1,0l-1.1-0.1
		c-1.5-0.1-3-0.3-4.5-0.5l-0.6-0.1l-0.6-0.1c-0.4-0.1-0.7-0.1-1.1-0.2c-0.4-0.1-0.7-0.1-1.1-0.2c-0.4-0.1-0.7-0.2-1.1-0.2
		c-0.4-0.1-0.7-0.2-1.1-0.3c-0.4-0.1-0.7-0.2-1.1-0.3c-0.7-0.2-1.4-0.4-2.1-0.6c-0.7-0.2-1.4-0.5-2.1-0.7c-0.7-0.3-1.4-0.5-2.1-0.8
		c-0.7-0.3-1.3-0.6-2-0.9c-0.7-0.3-1.3-0.6-2-0.9c-0.3-0.2-0.7-0.3-1-0.5c-0.3-0.2-0.6-0.3-1-0.5c-0.3-0.2-0.6-0.4-0.9-0.5l-0.5-0.3
		l-0.5-0.3c-1.2-0.7-2.4-1.5-3.6-2.3c-0.3-0.2-0.6-0.4-0.9-0.6c-0.3-0.2-0.6-0.4-0.8-0.6c-0.3-0.2-0.6-0.4-0.8-0.6
		c-0.3-0.2-0.5-0.4-0.8-0.6c-1.1-0.9-2.1-1.8-3.1-2.7c-0.2-0.2-0.5-0.5-0.7-0.7l-0.4-0.4l-0.3-0.4c-0.2-0.2-0.5-0.5-0.7-0.7
		c-0.2-0.2-0.4-0.5-0.7-0.7c-0.2-0.2-0.4-0.5-0.7-0.7c-0.2-0.2-0.4-0.5-0.6-0.7c-0.4-0.5-0.8-1-1.2-1.5c-0.8-1-1.5-2-2.2-3.1
		c-0.2-0.3-0.3-0.5-0.5-0.8c-0.1-0.1-0.2-0.3-0.3-0.4c-0.1-0.1-0.2-0.3-0.2-0.4c-0.2-0.3-0.3-0.5-0.5-0.8c-0.2-0.3-0.3-0.5-0.5-0.8
		c-0.3-0.5-0.6-1-0.9-1.6c-0.1-0.3-0.3-0.5-0.4-0.8c-0.1-0.3-0.3-0.5-0.4-0.8c-0.5-1-1-2.1-1.4-3.1c-0.9-2.1-1.6-4.1-2.1-6
		c-0.5-1.9-1-3.8-1.3-5.6c-0.3-1.8-0.5-3.4-0.6-5c-0.1-1.5-0.1-3-0.1-4.3c0-0.3,0-0.6,0-0.9c0-0.3,0-0.6,0-0.9
		c0-0.6,0.1-1.1,0.1-1.6c0-0.5,0.1-1,0.1-1.4c0-0.4,0.1-0.8,0.1-1.1c0-0.2,0-0.3,0.1-0.5c0-0.1,0-0.3,0.1-0.4c0-0.3,0.1-0.5,0.1-0.6
		C1222.6,74,1222.6,73.8,1222.6,73.8z"/>
	<linearGradient id="SVGID_2_" gradientUnits="userSpaceOnUse" x1="1229.1616" y1="101.3188" x2="1328.7849" y2="101.3188">
		<stop  offset="0" style="stop-color:#307F26"/>
		<stop  offset="1.081735e-02" style="stop-color:#39822C"/>
		<stop  offset="9.133628e-02" style="stop-color:#719E58"/>
		<stop  offset="0.1708" style="stop-color:#9CBA88"/>
		<stop  offset="0.2472" style="stop-color:#BFD2B2"/>
		<stop  offset="0.32" style="stop-color:#DBE5D4"/>
		<stop  offset="0.3882" style="stop-color:#EFF3EC"/>
		<stop  offset="0.4501" style="stop-color:#FBFCFA"/>
		<stop  offset="0.5" style="stop-color:#FFFFFF"/>
		<stop  offset="0.5557" style="stop-color:#FEFCFB"/>
		<stop  offset="0.6177" style="stop-color:#FBF1ED"/>
		<stop  offset="0.6827" style="stop-color:#F5DED5"/>
		<stop  offset="0.7499" style="stop-color:#EDC4B4"/>
		<stop  offset="0.8187" style="stop-color:#E2A18B"/>
		<stop  offset="0.8888" style="stop-color:#D5765C"/>
		<stop  offset="0.9587" style="stop-color:#C64130"/>
		<stop  offset="1" style="stop-color:#BD1D1D"/>
	</linearGradient>
	<path class="st5" d="M1299.6,78.5c-15.1,11.6-27.7,15.3-61.3,10.2c-2.7-0.4-6.5-0.5-9.1-0.4c4.5,22.5,25.5,39.5,49.4,39.5
		c26.7,0,49.3-21.2,50.2-47.6C1318.4,75,1307.8,72.1,1299.6,78.5z"/>
</g>
<path class="st0" d="M985.1,144.4c4.8-0.7,10.6-1.3,16.9-1.3c11.4,0,19.6,2.6,24.9,7.7c5.5,5,8.7,12.2,8.7,22.1
	c0,10.1-3.1,18.3-8.9,23.9c-5.8,5.8-15.3,8.9-27.2,8.9c-5.7,0-10.4-0.3-14.4-0.7V144.4z M993,198.8c2,0.4,4.9,0.5,8,0.5
	c17,0,26.2-9.5,26.2-26.1c0.1-14.5-8.1-23.8-25-23.8c-4.1,0-7.2,0.4-9.3,0.8V198.8z"/>
<path class="st0" d="M1054.6,185.8l-6.4,19.4h-8.2l20.9-61.6h9.6l21,61.6h-8.5l-6.6-19.4H1054.6z M1074.8,179.6l-6-17.7
	c-1.4-4-2.3-7.7-3.2-11.2h-0.2c-0.9,3.7-1.9,7.4-3.1,11.2l-6,17.8H1074.8z"/>
<path class="st0" d="M1120,144.4c3.5-0.7,9-1.3,14.5-1.3c8,0,13.1,1.4,16.9,4.5c3.2,2.4,5.1,6,5.1,10.9c0,5.9-3.9,11.2-10.4,13.5
	v0.2c5.8,1.5,12.7,6.3,12.7,15.4c0,5.3-2.1,9.3-5.2,12.3c-4.3,3.9-11.2,5.8-21.3,5.8c-5.5,0-9.7-0.4-12.3-0.7V144.4z M1127.9,169.6
	h7.2c8.4,0,13.3-4.4,13.3-10.3c0-7.2-5.5-10.1-13.5-10.1c-3.7,0-5.8,0.3-7,0.5V169.6z M1127.9,199.1c1.6,0.3,3.8,0.4,6.7,0.4
	c8.2,0,15.8-3,15.8-12c0-8.4-7.2-11.9-15.9-11.9h-6.6V199.1z"/>
<path class="st0" d="M1201.4,176.3h-23.9v22.2h26.7v6.7h-34.6v-61.6h33.3v6.7h-25.3v19.5h23.9V176.3z"/>
<path class="st0" d="M1214.5,205.2v-61.6h8.7l19.7,31.2c4.6,7.2,8.1,13.7,11.1,20l0.2-0.1c-0.7-8.2-0.9-15.7-0.9-25.3v-25.8h7.5
	v61.6h-8l-19.6-31.3c-4.3-6.9-8.4-13.9-11.5-20.6l-0.3,0.1c0.5,7.8,0.6,15.2,0.6,25.4v26.3H1214.5z"/>
<g>
	<path class="st2" d="M1281,144.5l-0.6,0l-0.6,0l-0.3,0c-0.1,0-0.2,0-0.3,0l-1.1,0l-0.3,0l-0.3,0l-0.6,0c-0.4,0-0.8,0-1.1,0l-1.1,0
		l-0.2,0v60.7h8v-60.8c-0.3,0-0.7,0-1,0.1L1281,144.5z"/>
</g>
<path class="st0" d="M1308.1,150.3h-18.7v-6.8h45.6v6.8h-18.8v54.8h-8V150.3z"/>
<path class="st0" d="M1392,173.7c0,21.2-12.9,32.4-28.6,32.4c-16.3,0-27.7-12.6-27.7-31.3c0-19.6,12.2-32.4,28.6-32.4
	C1381.2,142.5,1392,155.4,1392,173.7z M1344.2,174.7c0,13.2,7.1,25,19.7,25c12.6,0,19.7-11.6,19.7-25.6c0-12.2-6.4-25-19.7-25
	C1350.8,149,1344.2,161.2,1344.2,174.7z"/>
<g>
	<g>
		<path class="st0" d="M985.1,88.9c0.9-0.2,2.1-0.3,3.3-0.3c1.8,0,3,0.3,3.8,1.1c0.7,0.6,1,1.5,1,2.5c0,1.7-1.1,2.9-2.5,3.4v0.1
			c1,0.4,1.6,1.3,1.9,2.7c0.4,1.8,0.7,3.1,1,3.6h-1.8c-0.2-0.4-0.5-1.5-0.9-3.1c-0.4-1.8-1.1-2.5-2.6-2.6h-1.6v5.7h-1.7V88.9z
			 M986.8,94.9h1.7c1.8,0,3-1,3-2.5c0-1.7-1.2-2.4-3-2.5c-0.8,0-1.4,0.1-1.7,0.2V94.9z"/>
		<path class="st0" d="M1001.2,88.7v13.1h-1.7V88.7H1001.2z"/>
		<path class="st0" d="M1007.8,99.8c0.8,0.5,1.9,0.9,3,0.9c1.7,0,2.7-0.9,2.7-2.2c0-1.2-0.7-1.9-2.5-2.6c-2.1-0.8-3.5-1.9-3.5-3.7
			c0-2,1.7-3.6,4.3-3.6c1.3,0,2.3,0.3,2.9,0.6l-0.5,1.4c-0.4-0.2-1.3-0.6-2.5-0.6c-1.8,0-2.5,1.1-2.5,2c0,1.2,0.8,1.8,2.6,2.5
			c2.2,0.9,3.4,1.9,3.4,3.9c0,2-1.5,3.8-4.6,3.8c-1.3,0-2.7-0.4-3.4-0.8L1007.8,99.8z"/>
		<path class="st0" d="M1024,90.2h-4v-1.4h9.7v1.4h-4v11.7h-1.7V90.2z"/>
		<path class="st0" d="M1045.8,95.2c0,4.5-2.7,6.9-6.1,6.9c-3.5,0-5.9-2.7-5.9-6.7c0-4.2,2.6-6.9,6.1-6.9
			C1043.5,88.5,1045.8,91.3,1045.8,95.2z M1035.6,95.4c0,2.8,1.5,5.3,4.2,5.3c2.7,0,4.2-2.5,4.2-5.5c0-2.6-1.4-5.3-4.2-5.3
			C1037,89.9,1035.6,92.5,1035.6,95.4z"/>
		<path class="st0" d="M1051.9,88.9c0.9-0.2,2.1-0.3,3.3-0.3c1.8,0,3,0.3,3.8,1.1c0.7,0.6,1,1.5,1,2.5c0,1.7-1.1,2.9-2.5,3.4v0.1
			c1,0.4,1.6,1.3,1.9,2.7c0.4,1.8,0.7,3.1,1,3.6h-1.8c-0.2-0.4-0.5-1.5-0.9-3.1c-0.4-1.8-1.1-2.5-2.6-2.6h-1.6v5.7h-1.7V88.9z
			 M1053.6,94.9h1.7c1.8,0,3-1,3-2.5c0-1.7-1.2-2.4-3-2.5c-0.8,0-1.4,0.1-1.7,0.2V94.9z"/>
		<path class="st0" d="M1068.6,97.8l-1.4,4.1h-1.8l4.5-13.1h2l4.5,13.1h-1.8l-1.4-4.1H1068.6z M1072.9,96.4l-1.3-3.8
			c-0.3-0.9-0.5-1.6-0.7-2.4h0c-0.2,0.8-0.4,1.6-0.7,2.4l-1.3,3.8H1072.9z"/>
		<path class="st0" d="M1082.3,101.9V88.7h1.9l4.2,6.6c1,1.5,1.7,2.9,2.4,4.3l0,0c-0.2-1.8-0.2-3.4-0.2-5.4v-5.5h1.6v13.1h-1.7
			l-4.2-6.7c-0.9-1.5-1.8-3-2.5-4.4l-0.1,0c0.1,1.7,0.1,3.2,0.1,5.4v5.6H1082.3z"/>
		<path class="st0" d="M1101.5,90.2h-4v-1.4h9.7v1.4h-4v11.7h-1.7V90.2z"/>
		<path class="st0" d="M1119.4,95.7h-5.1v4.7h5.7v1.4h-7.4V88.7h7.1v1.4h-5.4v4.2h5.1V95.7z"/>
	</g>
</g>
<line class="st3" x1="1120" y1="122.4" x2="985.1" y2="122.4"/>
<line class="st3" x1="1120" y1="225.5" x2="1392" y2="225.5"/>
<rect x="1613.5" y="-145.5" class="st4" width="730.2" height="595.3"/>
<g>
	<g>
		<g>
			<path class="st0" d="M1767.6,137.1c4.8-0.7,10.6-1.3,16.9-1.3c11.4,0,19.6,2.6,24.9,7.7c5.5,5,8.7,12.2,8.7,22.1
				c0,10.1-3.1,18.3-8.9,23.9c-5.8,5.8-15.3,8.9-27.2,8.9c-5.7,0-10.4-0.3-14.4-0.7V137.1z M1775.5,191.6c2,0.4,4.9,0.5,8,0.5
				c17,0,26.2-9.5,26.2-26.1c0.1-14.5-8.1-23.8-25-23.8c-4.1,0-7.2,0.4-9.3,0.8V191.6z"/>
			<path class="st0" d="M1837.1,178.5l-6.4,19.4h-8.2l20.9-61.6h9.6l21,61.6h-8.5l-6.6-19.4H1837.1z M1857.3,172.3l-6-17.7
				c-1.4-4-2.3-7.7-3.2-11.2h-0.2c-0.9,3.7-1.9,7.4-3.1,11.2l-6,17.8H1857.3z"/>
			<path class="st0" d="M1902.5,137.1c3.5-0.7,9-1.3,14.5-1.3c8,0,13.1,1.4,16.9,4.5c3.2,2.4,5.1,6,5.1,10.9
				c0,5.9-3.9,11.2-10.4,13.5v0.2c5.8,1.5,12.7,6.3,12.7,15.4c0,5.3-2.1,9.3-5.2,12.3c-4.3,3.9-11.2,5.8-21.3,5.8
				c-5.5,0-9.7-0.4-12.3-0.7V137.1z M1910.4,162.3h7.2c8.4,0,13.3-4.4,13.3-10.3c0-7.2-5.5-10.1-13.5-10.1c-3.7,0-5.8,0.3-7,0.5
				V162.3z M1910.4,191.9c1.6,0.3,3.8,0.4,6.7,0.4c8.2,0,15.8-3,15.8-12c0-8.4-7.2-11.9-15.9-11.9h-6.6V191.9z"/>
			<path class="st0" d="M1983.9,169H1960v22.2h26.7v6.7H1952v-61.6h33.3v6.7H1960v19.5h23.9V169z"/>
			<path class="st0" d="M1997,197.9v-61.6h8.7l19.7,31.2c4.6,7.2,8.1,13.7,11.1,20l0.2-0.1c-0.7-8.2-0.9-15.7-0.9-25.3v-25.8h7.5
				v61.6h-8l-19.6-31.3c-4.3-6.9-8.4-13.9-11.5-20.6l-0.3,0.1c0.5,7.8,0.6,15.2,0.6,25.4v26.3H1997z"/>
			<path class="st0" d="M2105.6,143.1h-18.7v-6.8h45.6v6.8h-18.8v54.8h-8V143.1z"/>
			<path class="st0" d="M2189.5,166.5c0,21.2-12.9,32.4-28.6,32.4c-16.3,0-27.7-12.6-27.7-31.3c0-19.6,12.2-32.4,28.6-32.4
				C2178.7,135.3,2189.5,148.2,2189.5,166.5z M2141.7,167.5c0,13.2,7.1,25,19.7,25c12.6,0,19.7-11.6,19.7-25.6
				c0-12.2-6.4-25-19.7-25C2148.3,141.8,2141.7,153.9,2141.7,167.5z"/>
		</g>
		<g>
			<g>
				<path class="st0" d="M1767.6,87.8c0.9-0.2,2.1-0.3,3.3-0.3c1.8,0,3,0.3,3.8,1.1c0.7,0.6,1,1.5,1,2.5c0,1.7-1.1,2.9-2.5,3.4v0.1
					c1,0.4,1.6,1.3,1.9,2.7c0.4,1.8,0.7,3.1,1,3.6h-1.8c-0.2-0.4-0.5-1.5-0.9-3.1c-0.4-1.8-1.1-2.5-2.6-2.6h-1.6v5.7h-1.7V87.8z
					 M1769.3,93.8h1.7c1.8,0,3-1,3-2.5c0-1.7-1.2-2.4-3-2.5c-0.8,0-1.4,0.1-1.7,0.2V93.8z"/>
				<path class="st0" d="M1783.7,87.7v13.1h-1.7V87.7H1783.7z"/>
				<path class="st0" d="M1790.3,98.7c0.8,0.5,1.9,0.9,3,0.9c1.7,0,2.7-0.9,2.7-2.2c0-1.2-0.7-1.9-2.5-2.6c-2.1-0.8-3.5-1.9-3.5-3.7
					c0-2,1.7-3.6,4.3-3.6c1.3,0,2.3,0.3,2.9,0.6l-0.5,1.4c-0.4-0.2-1.3-0.6-2.5-0.6c-1.8,0-2.5,1.1-2.5,2c0,1.2,0.8,1.8,2.6,2.5
					c2.2,0.9,3.4,1.9,3.4,3.9c0,2-1.5,3.8-4.6,3.8c-1.3,0-2.7-0.4-3.4-0.8L1790.3,98.7z"/>
				<path class="st0" d="M1806.5,89.1h-4v-1.4h9.7v1.4h-4v11.7h-1.7V89.1z"/>
				<path class="st0" d="M1828.3,94.1c0,4.5-2.7,6.9-6.1,6.9c-3.5,0-5.9-2.7-5.9-6.7c0-4.2,2.6-6.9,6.1-6.9
					C1826,87.4,1828.3,90.2,1828.3,94.1z M1818.1,94.3c0,2.8,1.5,5.3,4.2,5.3c2.7,0,4.2-2.5,4.2-5.5c0-2.6-1.4-5.3-4.2-5.3
					C1819.5,88.8,1818.1,91.4,1818.1,94.3z"/>
				<path class="st0" d="M1834.4,87.8c0.9-0.2,2.1-0.3,3.3-0.3c1.8,0,3,0.3,3.8,1.1c0.7,0.6,1,1.5,1,2.5c0,1.7-1.1,2.9-2.5,3.4v0.1
					c1,0.4,1.6,1.3,1.9,2.7c0.4,1.8,0.7,3.1,1,3.6h-1.8c-0.2-0.4-0.5-1.5-0.9-3.1c-0.4-1.8-1.1-2.5-2.6-2.6h-1.6v5.7h-1.7V87.8z
					 M1836.1,93.8h1.7c1.8,0,3-1,3-2.5c0-1.7-1.2-2.4-3-2.5c-0.8,0-1.4,0.1-1.7,0.2V93.8z"/>
				<path class="st0" d="M1851.1,96.7l-1.4,4.1h-1.8l4.5-13.1h2l4.5,13.1h-1.8l-1.4-4.1H1851.1z M1855.4,95.3l-1.3-3.8
					c-0.3-0.9-0.5-1.6-0.7-2.4h0c-0.2,0.8-0.4,1.6-0.7,2.4l-1.3,3.8H1855.4z"/>
				<path class="st0" d="M1864.8,100.8V87.7h1.9l4.2,6.6c1,1.5,1.7,2.9,2.4,4.3l0,0c-0.2-1.8-0.2-3.4-0.2-5.4v-5.5h1.6v13.1h-1.7
					l-4.2-6.7c-0.9-1.5-1.8-3-2.5-4.4l-0.1,0c0.1,1.7,0.1,3.2,0.1,5.4v5.6H1864.8z"/>
				<path class="st0" d="M1884,89.1h-4v-1.4h9.7v1.4h-4v11.7h-1.7V89.1z"/>
				<path class="st0" d="M1901.9,94.6h-5.1v4.7h5.7v1.4h-7.4V87.7h7.1v1.4h-5.4v4.2h5.1V94.6z"/>
			</g>
		</g>
		<line class="st3" x1="1902.5" y1="119.2" x2="1767.6" y2="119.2"/>
	</g>
	<linearGradient id="SVGID_3_" gradientUnits="userSpaceOnUse" x1="1977.6456" y1="152.1451" x2="2131.74" y2="152.1451">
		<stop  offset="0" style="stop-color:#307F26"/>
		<stop  offset="1.081735e-02" style="stop-color:#39822C"/>
		<stop  offset="9.133628e-02" style="stop-color:#719E58"/>
		<stop  offset="0.1708" style="stop-color:#9CBA88"/>
		<stop  offset="0.2472" style="stop-color:#BFD2B2"/>
		<stop  offset="0.32" style="stop-color:#DBE5D4"/>
		<stop  offset="0.3882" style="stop-color:#EFF3EC"/>
		<stop  offset="0.4501" style="stop-color:#FBFCFA"/>
		<stop  offset="0.5" style="stop-color:#FFFFFF"/>
		<stop  offset="0.5557" style="stop-color:#FEFCFB"/>
		<stop  offset="0.6177" style="stop-color:#FBF1ED"/>
		<stop  offset="0.6827" style="stop-color:#F5DED5"/>
		<stop  offset="0.7499" style="stop-color:#EDC4B4"/>
		<stop  offset="0.8187" style="stop-color:#E2A18B"/>
		<stop  offset="0.8888" style="stop-color:#D5765C"/>
		<stop  offset="0.9587" style="stop-color:#C64130"/>
		<stop  offset="1" style="stop-color:#BD1D1D"/>
	</linearGradient>
	<path class="st6" d="M2131.1,205.5c0.8-0.8,0.9-1.2,0.3-2.2c-0.3-0.5-0.6-1-0.2-1.6c0.2-0.3,0.1-0.6-0.1-0.9
		c-0.4-0.4-0.8-0.9-1.2-1.4c-0.5-0.6-1.3-1.2-1.5-1.9c-0.2-0.9-0.7-0.9-1.4-1.1c-0.9-0.1-1.5-0.8-1.5-1.6c0-0.5-0.1-0.9-0.2-1.3
		c-0.1-0.4-0.3-0.7-0.7-0.7c-1.8-0.1-3.2-1.1-4.6-1.9c-1.4-0.9-2.6-2-3.7-3.2c-1.1-1.2-2.2-2.4-3.6-3.4c-1.7-1.2-3.6-2-5.5-2.9
		c-1.3-0.6-2.5-1.3-3.8-2c-1.1-0.6-2.2-1.3-3.3-2c-1.3-0.9-2.6-1.6-3.7-2.7c-1-1.1-1.2-1.7-0.7-3c0.1-0.2,0.2-0.3,0.4-0.2
		c0.7,0.4,1.2,0.3,1.8-0.2c0.1-0.2,0.4-0.3,0.6-0.3c1.1-0.4,1.6-1.3,2-2.2c0.5-1.3-0.7-3.2-2.8-2.9c-1.4,0.2-2.8,0.3-4.2,0.2
		c-1.3-0.1-2.5-0.4-3.8-0.2c-0.4,0-0.8,0-1.1-0.3c-0.5-0.6-1.2-0.8-1.9-0.8c-1-0.1-1.6-0.6-2.2-1.3c-0.5-0.7-1.2-1.3-2.1-1.4
		c-1-0.1-1.6-0.6-1.9-1.5c-0.2-0.7-0.5-1.5-1.4-1.7c-0.1,0-0.2-0.1-0.3-0.2c-1-1.1-1.9-2.3-2.5-3.7c-0.3-0.8-0.9-1.2-1.6-1.6
		c-0.2-0.1-0.4-0.2-0.6-0.4c-1.3-1.7-2.6-3.5-3-5.7c-0.4-2.1-0.9-4.2-0.9-6.4c0-1.1,0-2.3-0.6-3.3c-0.5-0.8-0.7-1.7-0.8-2.6
		c-0.1-1.3-0.4-2.6-1-3.8c-0.3-0.6-0.7-1.1-1.4-1.3c-0.9-0.3-1.6-0.9-2.3-1.5c-1.2-1-2.1-2.4-3.1-3.6c-1-1.1-2.2-1.9-3.4-2.7
		c-0.5-0.3-0.9-0.6-1.4-1c-0.7-0.7-1.3-1.5-2-2.2c-1.8-1.8-2.4-4.1-2.6-6.6c-0.1-1.4,0.3-2.9-0.1-4.3c-0.1-0.5-0.1-1.2,0.1-1.7
		c0.2-0.4,0.4-0.8,0-1.2c-0.1-0.1-0.1-0.2,0.1-0.3c0.5-0.5,1.7-0.2,1.9,0.4c0,0.2,0,0.3,0.3,0.3c0.2,0,0.2-0.2,0.2-0.3
		c0-0.2,0-0.3,0-0.5c0-0.3-0.1-0.7,0.3-0.8c0.4-0.1,0.4,0.3,0.4,0.6c0,0.2,0.1,0.3,0.3,0.3c0.3,0,0.2-0.2,0.3-0.4
		c0.1-0.6,0.2-1.1,0.4-1.7c0.3-1.2,0.1-1.4-1-1.7c-0.5-0.1-0.5,0.4-0.9,0.3c-0.1-0.3-0.1-0.7,0-1c0-0.2,0-0.4-0.3-0.4
		c-0.4-0.1-0.4-0.1-0.1-0.4c0.9-1,0.6-2.4-0.6-2.9c-0.3-0.1-0.7-0.4-0.6-0.8c0.2-0.9,0-1.9,1-2.4c0.1-0.1,0.2-0.2,0.2-0.3
		c0.4-0.6,0.8-1.2,1.6-1.3c0.8-0.1,1.6-0.3,2.1-1c0.1-0.1,0.3-0.1,0.4-0.1c0.4,0.2,1,0.5,0.9,0.8c0,0.4-0.7,0.5-1.1,0.4
		c-0.4-0.1-0.6,0.2-0.7,0.4c-0.1,0.2-0.2,0.4,0,0.6c0.2,0.2,0.5,0.1,0.8,0c1-0.5,2-0.8,3-1.3c0.4-0.2,0.8-0.3,1.3-0.3
		c1.1,0,1.5-0.6,1.2-1.7c-0.1-0.2-0.2-0.5,0-0.7c0.3,0.2,0.7,0.3,0.7,0.8c0,0.3,0.2,0.5,0.6,0.6c0.5,0.1,1.1,0,1.6-0.1
		c0.4,0,0.7-0.3,0.7-0.8c0.1-0.4,0-0.6-0.4-0.7c-0.4-0.2-0.1-0.5,0.1-0.5c0.7-0.2,1.4-0.4,2.1,0.1c0.3,0.2,0.7,0.4,1,0.6
		c0.5,0.3,1.2,0.7,1,1.5c0,0,0,0.2,0.2,0.2c0.7-0.4,1.2-1.1,1.9-1.7c0.7,0.8,1.5,1.6,2.2,2.4c0.3,0.3,0.4,0.6-0.2,0.7
		c-0.3,0.1-0.7,0.2-0.5,0.7c0.2,0.5,0.5,0.6,0.9,0.5c1.2-0.3,1.9-1.9,1.4-2.9c-0.4-0.8-1-1.5-1.7-2c-0.5-0.4-1-0.8-0.8-1.6
		c0.4-1.6,0.4-1.6-1.1-2.2c-0.4-0.2-0.4-0.4-0.2-0.7c0.4-0.4,0.8-0.6,1.3-0.9c0.4-0.2,1-0.4,0.9-1.1c0-0.6-0.4-1-1-1.2
		c-0.4-0.2-0.9-0.4-1.3-0.5c-0.5-0.1-1.1-0.4-1.1-1.1c0-0.5,0.4-0.8,0.8-1c1.4-0.8,2.9-1.6,4.6-1.7c0.4,0,0.5-0.3,0.5-0.5
		c0-0.2,0.3-0.6-0.1-0.6c-0.5-0.1-1-0.5-1.6-0.3c-0.1,0-0.4,0-0.5-0.1c-0.5-0.7-1.3-0.5-1.9-0.8c-0.6-0.2-1.3-0.6-2-0.2
		c-0.1,0-0.2,0-0.3,0c-0.7-0.3-1.4-0.6-2.2-0.9c-1.1-0.4-2-1.2-3.3-1c-0.6,0.1-1.2,0.1-1.6-0.6c-0.1-0.2-0.4-0.3-0.6-0.3
		c-0.5-0.1-1-0.2-1.6-0.2c-1.1,0-1.6-0.6-2-1.5c0-0.1-0.1-0.3-0.1-0.4c-0.3-0.6-0.4-1.3-1.2-1.6c-0.3-0.1-0.5-0.4-0.4-0.8
		c0.2-0.6,0-1.1-0.4-1.4c-1-0.6-1.3-1.4-0.8-2.5c0.2-0.4,0-0.7-0.5-0.8c-0.6-0.1-1.1-0.2-1.8-0.1c-0.9,0.1-1.6,0.5-2.3,0.9
		c-0.6,0.3-1.1,0.6-1.7,0c-0.4-0.4-1-0.7-1.6-0.8c-0.4-0.1-0.7,0.2-1.1,0.3c-1,0.3-2.1,0-3.1,0c-1.4,0-2.3,0.6-2.7,2
		c-0.2,0.6-0.5,1.2-1.2,1.1c-0.6-0.1-1.2-0.2-1.7-0.3c-0.7-0.2-0.9-0.6-1-1.2c-0.1-0.6-0.6-0.9-1.1-0.8c-0.5,0.1-1.1,0.1-1.6,0.1
		c-1.1,0-1.6,0.5-1.5,1.6c0.1,1.2,0.4,2.3,0.1,3.5c-0.1,0.4-0.4,0.6-0.8,0.4c-0.9-0.5-1.6-1.2-2-2.1c-0.1-0.2-0.2-0.3-0.4-0.3
		c-0.6,0.2-1.3,0.4-1.9,0.8c-0.7,0.5-0.7,1.5-1.2,2.2c-0.2,0.3,0,0.5,0.4,0.6c0.4,0.1,0.9,0.1,1.3,0.2c0.2,0,0.4,0.1,0.5,0.4
		c0,0.3-0.2,0.4-0.4,0.4c-0.5,0.2-0.8,0.7-0.8,1c0,0.5-0.2,0.9-0.3,1.3c-0.1,0.3-0.4,0.7-0.8,0.7c-0.3,0-0.3-0.5-0.3-0.8
		c0.1-0.8-0.6-1.4-0.7-2.2c0-0.1-0.2-0.3-0.3-0.3c-0.5,0.1-1-0.1-1.4,0.2c-0.7,0.5-1.6,0.7-2.4,0.8c-0.5,0.1-0.8-0.1-0.8-0.5
		c-0.1-0.4-0.3-0.8-0.4-1.2c-0.3-1.4-1.1-2.5-2.2-3.5c-0.3-0.3-0.7-0.3-1.1-0.3c-0.4,0.1-0.3,0.5-0.3,0.8c-0.1,0.6-0.2,1.3,0,1.9
		c0.1,0.3,0.1,0.7-0.1,0.9c-0.9,0.9-1.5,2.1-2.5,2.8c-0.6,0.5-1.2,1-1.2,1.8c0,0.3-0.3,0.4-0.4,0.5c-0.2,0.4-0.9,0.6-0.7,1.2
		c0.2,0.6,0.8,1.2,0.1,1.8c0,0,0,0.1,0,0.1c0.1,0.5-0.2,0.9-0.7,0.9c-1,0-1.7-1.1-1.7-2c0-0.5,0-1-0.1-1.5c-0.1-0.6-0.1-1.2,0.1-1.8
		c0.3-0.7,0-1.1-0.8-1c-1,0.1-1.7-0.2-2.2-1.1c-0.3-0.6-0.7-1.1-1.1-1.7c-0.5-0.7-0.4-1.2,0.2-1.8c0.6-0.6,0.9-1.3,1.2-2.1
		c0.1-0.3,0-0.7-0.3-0.8c-0.8-0.3-2-0.1-2.4,0.8c-0.7,1.2-1.6,1.6-3,1.4c-0.3-0.1-0.8-0.1-1,0.2c-0.3,0.4-0.1,0.8,0,1.2
		c0.4,1.2,0.8,1.8-0.8,2.5c-0.9,0.4-1.8,1-2.4,1.9c-0.5,0.7-1.1,0.8-1.7,0.6c-0.3-0.1-0.4-0.4-0.6-0.5c-0.7-0.7-1.7-0.7-2.4-1.3
		c-0.5-0.4-0.9-0.2-1.3,0.1c-0.2,0.1-0.3,0.3-0.5,0.4c-0.7,0.6-1.3,0.9-2.3,0.6c-0.7-0.2-1.4-0.3-2.2-0.3c-0.3,0-0.5-0.2-0.5-0.5
		c-0.1-0.4-0.3-0.8-0.8-0.3c-0.2,0.2-0.6,0.3-0.9,0.4c-0.7,0.1-1.4,0.3-2.1,0.5c-0.5,0.1-0.6,0.5-0.5,0.9c0.4,0.9,1,1.6,1.7,2.3
		c0.2,0.2,0.8,0,0.7,0.6c-0.1,0.4-0.1,0.7-0.2,1.1c0,0.1-0.1,0.2-0.2,0.4c-0.3,0.4-0.2,0.7,0.2,1.1c0.4,0.3,0.7,0.7,1.2,0.9
		c0.7,0.4,0.7,0.7,0,1.1c-0.7,0.4-0.9,1.1-0.8,1.8c0,0.3,0,0.6,0.1,0.9c0,0.2,0,0.3-0.2,0.3c-1.3,0-2.2,0.8-3.1,1.6
		c-0.2,0.2-0.4,0.3-0.7,0.2c-0.7-0.1-1.4-0.2-2.1-0.4c-0.5-0.1-0.9,0.1-1.1,0.5c-0.3,0.4,0.2,0.7,0.4,1c0.2,0.2,0.4,0.3,0.5,0.6
		c0.3,0.9,0.5,1.8,0.4,2.8c0,0.1,0,0.3,0.1,0.4c0.5,0.3,0.9,1,1.4,1c1.1-0.1,1.5,0.5,1.6,1.5c0,0,0.1,0.1,0.1,0.1
		c0.2,0.6-0.1,1.1-0.8,1.1c-0.7,0-1.1,0.4-1.2,1c-0.1,0.8-0.7,1.2-1.4,1.5c-0.2,0.1-0.5,0.1-0.6,0.3c-0.3,0.5-0.2,0.8,0.7,1.3
		c0.2,0.1,0.5,0.3,0.5,0.5c-0.1,0.2-0.4,0.4-0.7,0.3c-0.4-0.1-0.6,0.1-0.5,0.5c0.1,0.9,0.1,1.8,0.8,2.6c1.3,1.3,2.8,2.3,3.9,3.7
		c0.2,0.3,0.6,0.4,1,0.4c1.1-0.3,2.3,0.3,3.2-0.6c0.2-0.2,0.4-0.1,0.6,0.1c0.1,0.1,0.2,0.3,0.1,0.4c-0.6,0.7-0.3,1.2,0.1,1.8
		c0.2,0.3,0.3,0.7-0.2,0.9c-2.3,1-2.9,1.8-2.7,4.1c0,0.5,0.3,0.6,0.7,0.7c0.8,0.2,1.6,0.1,2.4,0.1c1.1,0,2.3,0,3.4-0.4
		c0.9-0.4,1.5-1.2,2.3-1.7c0.2-0.1,0.3-0.4,0.3-0.7c0-0.4,0.2-0.7,0.6-0.9c0.7-0.5,1.4-1,2.1-1.5c0.2-0.1,0.4-0.2,0.6-0.1
		c0.7,0.4,1.2,0.1,1.4-0.7c0.3-1,1.6-2.3,2.6-2.4c0.8-0.1,1.6,0,2.4-0.3c0.3-0.1,0.7,0,0.9,0.2c0.6,0.4,1.2,0.6,1.9,0.7
		c0.8,0.1,1.3,0.5,1.6,1.3c0.1,0.4,0.3,0.9,0.8,1c1.8,0.1,2.9,1.5,4.3,2.3c0.3,0.2,0.5,0.5,0.7,0.9c0.4,0.8,1,1.6,1.5,2.4
		c0.3,0.4,0.6,0.5,1,0.3c0.3-0.2,0.6-0.2,0.9,0.2c0.2,0.3,0.5,0.6,0.9,0.8c1,0.4,1.9,1,2.2,2.1c0.3,1.2,0.8,2.4,1.5,3.5
		c0.2,0.3,0,0.4-0.3,0.4c-0.7,0-1.1,0.4-0.9,0.9c0.3,0.6,0.3,1.3,0.2,1.9c0,0.7-0.4,1.6-0.1,2.2c0.4,0.9,0.7,1.8,1.3,2.6
		c0.5,0.6,0.7,1.2,0.8,2c0.2,1-0.1,2-0.3,3c-0.1,0.8-0.4,1.5-0.8,2.1c-0.2,0.3-0.3,0.8,0,1.1c0.2,0.3,0.6,0.3,0.9,0.2
		c0.5-0.2,0.8,0,1.1,0.3c0.2,0.2,0.3,0.4,0.6,0.5c0.4,0,0.9,0.2,1,0.6c0.1,0.4-0.3,0.6-0.6,0.9c-0.5,0.4-0.4,0.7,0.2,1
		c0.3,0.1,0.6,0.3,0.9,0.5c0.9,0.6,1.3,1.7,2.1,2.4c0.6,0.6,1.2,1.1,1.5,2c0.2,0.8,0.9,1.6-0.2,2.4c-0.4,0.2-0.2,0.9,0.2,1.1
		c0.5,0.3,1,0.5,1.6,0.5c1.1,0,2.1,0.2,3,0.8c1.5,1.1,2.1,2.7,2.7,4.4c0.1,0.3,0.2,0.7,0.1,1.1c-0.2,0.7,0.3,1.3,0.8,1.7
		c1.4,1,3,1.7,4.1,3.1c0.1,0.1,0.2,0.1,0.3,0.2c0.5,0.4,0.7,0.8,0.6,1.4c0,0.3-0.1,0.6-0.1,0.9c-0.1,0.8,0.2,1.3,1.1,1.4
		c0.8,0.1,1.3,0.4,1.5,1.2c0.1,0.3,0.3,0.5,0.5,0.7c0.3,0.6,0.7,1.1,0.8,1.8c0.2,1,0.5,2,1.5,2.5c0.5,0.3,1.1,0.2,1.5,0.5
		c1.2,0.7,2.2,1.6,2.5,3c0.2,0.8,0.6,1.1,1.4,1c0.7-0.1,1.4-0.3,2-0.4c0.5-0.1,1.2-0.4,1.6-0.1c0.5,0.3,0.9,0.7,1.4,1
		c0.8,0.4,1.5,1,2.4,0.3c0.1-0.1,0.3-0.1,0.4-0.1c1.1-0.1,2.8,1.2,3.1,2.8c0.1,0.6,0.3,1.2,0.5,1.9c0.1,0.4,0.3,0.7,0.7,1
		c0.8,0.5,1,1.2,0.8,2.1c-0.1,0.4-0.1,0.9,0.1,1.1c0.6,0.7,1.3,1.5,2.2,1.4c1.2-0.1,2,0.5,2.7,1.3c0.6,0.6,0.5,1.1-0.3,1.4
		c-0.1,0-0.3,0.1-0.4,0.1c-0.5,0.2-0.9,0.8-0.7,1.2c0.1,0.6,0.6,0.7,1.1,0.7c0.3,0,0.6-0.2,1-0.3c0.7-0.2,1.4-0.5,2.1-0.2
		c0.9,0.4,1.6,0.2,2.3-0.4c0.3-0.3,0.6-0.3,0.9,0c0.8,1.1,1.7,2.2,2.1,3.5c0.1,0.2,0.1,0.4-0.1,0.5c-0.8,0.2-1.2,0.6-1,1.5
		c0.1,0.4-0.2,1-0.8,1.2c-0.2,0.1-0.5,0.2-0.5,0.4c0,0.3,0.4,0.3,0.7,0.4c0.3,0,0.5,0.1,0.8,0.1c0.5,0,0.7,0.3,0.8,0.7
		c0.1,0.5,0.5,0.7,0.9,1c1,0.7,2.4,1,2.6,2.6c0,0.1,0.1,0.1,0.1,0.1c1.3,1.1,2.2,1.1,3.4,0c0.2-0.2,0.6-0.5,0.8-0.3
		c0.9,0.6,2,1.1,2,2.4c0,0.4,0.1,0.7,0.3,1c0.5,1.2,0.7,2.4,0.5,3.6c-0.1,0.5,0,0.9,0.4,1.3c0.3,0.3,0.6,0.6,0.5,1.1
		c-0.1,0.3,0.1,0.6,0.2,0.8c0.4,0.6,0.7,1.2,0.9,1.9c0.2,0.9,0.6,1.7,0.7,2.7c0,0.6-0.1,1.3,0,1.9c0.1,1.1,0.2,2.3,0.1,3.4
		c0,1.3,0.2,2.3,1.3,3c0.1,0.1,0.2,0.3,0.3,0.5c0.3,0.7,0.1,1.3-0.3,2c-0.4,0.7-1.5,1.3-2.2,1c-0.6-0.3-1.1-0.2-1.8,0
		c-0.6,0.2-1.1,0.6-1.6,0.9c-0.7,0.5-0.7,0.7-0.1,1.4c0.4,0.5,0.8,1,1,1.6c0.1,0.4,0.1,0.6-0.2,1c-0.6,0.9-1.6,1.6-2,2.6
		c-0.2,0.5-0.6,0.7-1.2,0.6c-0.3,0-0.5-0.1-0.8-0.1c-0.8-0.1-1.2,0.3-1.1,1.1c0.1,0.6,0.3,1.1,0.3,1.7c0.1,0.8,0.1,1.5-0.5,2.1
		c-0.3,0.3-0.5,0.8,0,1.1c0.6,0.4,1.2,0.8,1.9,0.7c1.3-0.2,2.4,0.1,3.6,0.5c1,0.4,2.4-0.4,2.7-1.5c0.3-0.9,0.7-1.8,1.4-2.5
		c0.3-0.3,0.6-0.5,0.8-0.9c0.5-1.1,1.5-1.4,2.4-1.6c1-0.2,1.8-0.7,2.6-1.3c0.2-0.2,0.4-0.5,0.5-0.8c0.4-1.7,0-3.3,0.1-5
		c0-0.1,0-0.1-0.1-0.2c-0.3-0.3-0.3-0.6,0.2-0.8c0.2-0.1,0.4-0.3,0.4-0.5c0.2-0.8,0.8-1.2,1.5-1.5c0.1,0,0.2-0.1,0.3-0.2
		c0.6-0.4,1.2-1.1,2-1.1c1.2,0,2.4,0.5,3.7,0.6c0.5,0,1.1,0.3,1.4-0.1c0.4-0.5,0.6-1.3,0.4-1.9c-0.3-0.9-0.9-1.7-0.8-2.8
		c0.1-1.3-0.4-2.7,0.6-3.8c0.2-0.3,0.1-0.5-0.2-0.8c-0.6-0.4-1.1-0.7-1.5-1.3c-0.4-0.6-0.9-1.2-1.5-1.6c-0.7-0.4-1.2-1-1.8-1.6
		c-0.3-0.3-0.7-0.8-1.4-0.6c-0.4,0.1-0.9-0.2-1.2-0.6c-0.9-0.9-0.5-2-0.8-3c0-0.1,0.1-0.2,0.2-0.3c0.6-0.3,1-0.8,1.5-1.1
		c0.7-0.4,0.8-1,0.5-1.6c-0.4-0.9-0.1-1.7,0.5-2.3c0.9-0.8,1.6-1.6,2.1-2.7c0.6-1.3,1.6-2.3,2.5-3.4c0.5-0.6,1.3-1.3,2.3-1
		c0.6,0.2,1.2,0.6,1.9,1c-0.5,0.2-0.8,0.3-1.1,0.4c-0.3,0.1-0.3,0.2-0.4,0.5c0,0.3,0.2,0.2,0.4,0.3c0.4,0.2,0.9,0.3,1.3,0.3
		c0.6,0.1,1.1,0.4,1.5,0.7c0.6,0.5,1.1,0.9,1.8,1.2c0.6,0.3,1.2,0.5,1.9,0.4c2.5-0.3,3.9,0.1,4.4,2.1c0.1,0.5,0.8,0.9,0.5,1.5
		c-0.4,0.9,0.7,1.8,0,2.7c0,0,0,0.1,0.1,0.2c0.9,1.1,1.8,2.1,3.3,2.4c0.6,0.1,1.1,0.1,1.5,0.8c0.3,0.4,0.8,0.3,1.2,0.1
		c0.4-0.1,0.4-0.6,0.3-0.9c-0.1-0.2-0.2-0.4-0.2-0.6c-0.2-0.5-0.2-1,0.3-1.4C2130.1,206.3,2130.6,205.9,2131.1,205.5z"/>
	<path class="st0" d="M2073.7,137.6v61.6h-8v-61.6H2073.7z"/>
</g>
<rect x="1613.5" y="514.5" class="st4" width="730.2" height="595.3"/>
<rect x="823.5" y="514.5" class="st4" width="730.2" height="595.3"/>
<g>
	<g>
		<g>
			<g>
				<path class="st0" d="M946.7,807.5c5.6-0.8,12.2-1.5,19.4-1.5c13.1,0,22.4,3,28.6,8.8c6.3,5.8,10,13.9,10,25.4
					c0,11.5-3.6,21-10.2,27.5c-6.6,6.6-17.5,10.2-31.2,10.2c-6.5,0-11.9-0.3-16.6-0.8V807.5z M955.8,870c2.3,0.4,5.7,0.5,9.2,0.5
					c19.5,0,30.1-10.9,30.1-30c0.1-16.7-9.3-27.2-28.6-27.2c-4.7,0-8.3,0.4-10.7,0.9V870z"/>
				<path class="st0" d="M1026.4,855l-7.3,22.2h-9.4l24-70.6h11l24.1,70.6h-9.7l-7.5-22.2H1026.4z M1049.6,847.8l-6.9-20.3
					c-1.6-4.6-2.6-8.8-3.7-12.9h-0.2c-1,4.2-2.2,8.5-3.6,12.8l-6.9,20.4H1049.6z"/>
				<path class="st0" d="M1101.3,807.5c4-0.8,10.3-1.5,16.7-1.5c9.1,0,15,1.6,19.4,5.1c3.7,2.7,5.9,6.9,5.9,12.5
					c0,6.8-4.5,12.8-11.9,15.5v0.2c6.7,1.7,14.6,7.2,14.6,17.7c0,6.1-2.4,10.7-6,14.1c-4.9,4.5-12.9,6.6-24.4,6.6
					c-6.3,0-11.1-0.4-14.1-0.8V807.5z M1110.4,836.4h8.3c9.6,0,15.3-5,15.3-11.8c0-8.3-6.3-11.5-15.5-11.5c-4.2,0-6.6,0.3-8.1,0.6
					V836.4z M1110.4,870.3c1.8,0.3,4.4,0.4,7.7,0.4c9.4,0,18.1-3.5,18.1-13.7c0-9.6-8.3-13.6-18.2-13.6h-7.5V870.3z"/>
				<path class="st0" d="M1194.7,844.1h-27.5v25.5h30.6v7.6h-39.7v-70.6h38.1v7.6h-29v22.3h27.5V844.1z"/>
				<path class="st0" d="M1209.7,877.2v-70.6h10l22.6,35.7c5.2,8.3,9.3,15.7,12.7,22.9l0.2-0.1c-0.8-9.4-1-18-1-29v-29.6h8.6v70.6
					h-9.2l-22.4-35.8c-4.9-7.9-9.6-15.9-13.2-23.6l-0.3,0.1c0.5,8.9,0.7,17.4,0.7,29.1v30.2H1209.7z"/>
				<path class="st0" d="M1334.3,814.3h-21.5v-7.8h52.3v7.8h-21.6v62.9h-9.2V814.3z"/>
				<path class="st0" d="M1430.5,841.1c0,24.3-14.8,37.2-32.8,37.2c-18.7,0-31.8-14.5-31.8-35.8c0-22.4,13.9-37.1,32.8-37.1
					C1418,805.4,1430.5,820.2,1430.5,841.1z M1375.7,842.3c0,15.1,8.2,28.6,22.5,28.6c14.5,0,22.6-13.3,22.6-29.3
					c0-14-7.3-28.7-22.5-28.7C1383.2,812.8,1375.7,826.8,1375.7,842.3z"/>
			</g>
		</g>
		<path class="st0" d="M1297.6,808v70.6h-9.1V808H1297.6z"/>
		<g>
			<path d="M946.7,745.9h7c3.8,0,5.9,2.6,5.9,5.5c0,2.3-1.3,4.3-3.5,5.2l4.4,6.3h-2.2l-4.1-5.9h-0.4h-5.2v5.9h-1.8V745.9z
				 M953.3,755.2c2.9,0,4.3-1.7,4.3-3.8s-1.4-3.8-4.3-3.8h-4.8v7.5H953.3z"/>
			<path d="M1002.4,745.9v17h-1.8v-17H1002.4z"/>
			<path d="M1044.7,758.1c0.3,2.2,2.2,3.3,4.9,3.3c2.7,0,4.4-1.1,4.4-2.8c0-2.1-2.4-2.6-5.1-3.4c-2.7-0.8-5.9-1.8-5.9-5.1
				c0-2.7,2.3-4.5,6-4.5c3.6,0,6.4,1.7,6.4,4.9v0.3h-1.8v-0.1c0-2.2-1.9-3.3-4.6-3.3c-2.6,0-4.1,1.1-4.1,2.8c0,2,2.1,2.6,4.6,3.4
				c3.4,1,6.3,1.9,6.3,5.1c0,2.9-2.4,4.5-6.3,4.5c-3.6,0-6.3-1.5-6.7-4.5L1044.7,758.1z"/>
			<path d="M1094.1,745.9h13.7v1.8h-5.9v15.2h-1.8v-15.2h-5.9V745.9z"/>
			<path d="M1154.1,745.6c4.8,0,8.5,3.8,8.5,8.7c0,5-3.7,8.7-8.5,8.7c-4.8,0-8.5-3.8-8.5-8.7
				C1145.6,749.4,1149.3,745.6,1154.1,745.6z M1154.1,761.4c3.7,0,6.6-3,6.6-7s-2.8-7-6.6-7c-3.7,0-6.6,3-6.6,7
				S1150.3,761.4,1154.1,761.4z"/>
			<path d="M1203.1,745.9h7c3.8,0,5.9,2.6,5.9,5.5c0,2.3-1.3,4.3-3.5,5.2l4.4,6.3h-2.2l-4.1-5.9h-0.4h-5.2v5.9h-1.8V745.9z
				 M1209.8,755.2c2.9,0,4.3-1.7,4.3-3.8s-1.4-3.8-4.3-3.8h-4.8v7.5H1209.8z"/>
			<path d="M1264.3,745.9l7.4,17h-2l-1.6-3.7h-9.6l-1.6,3.7h-2l7.4-17H1264.3z M1259.2,757.4h8.1l-4.1-9.5L1259.2,757.4z"/>
			<path d="M1311.1,762.9v-17h1.9l10.7,14.1v-14.1h1.8v17h-1.9l-10.7-14.1v14.1H1311.1z"/>
			<path d="M1365.3,745.9h13.7v1.8h-5.9v15.2h-1.8v-15.2h-5.9V745.9z"/>
			<path d="M1418.7,745.9h11.7v1.8h-9.9v5.8h8.1v1.7h-8.1v5.9h9.9v1.8h-11.7V745.9z"/>
		</g>
	</g>
	<linearGradient id="SVGID_4_" gradientUnits="userSpaceOnUse" x1="946.6531" y1="784.7573" x2="1430.4589" y2="784.7573">
		<stop  offset="0" style="stop-color:#307F26"/>
		<stop  offset="1.081735e-02" style="stop-color:#39822C"/>
		<stop  offset="9.133628e-02" style="stop-color:#719E58"/>
		<stop  offset="0.1708" style="stop-color:#9CBA88"/>
		<stop  offset="0.2472" style="stop-color:#BFD2B2"/>
		<stop  offset="0.32" style="stop-color:#DBE5D4"/>
		<stop  offset="0.3882" style="stop-color:#EFF3EC"/>
		<stop  offset="0.4501" style="stop-color:#FBFCFA"/>
		<stop  offset="0.5" style="stop-color:#FFFFFF"/>
		<stop  offset="0.5557" style="stop-color:#FEFCFB"/>
		<stop  offset="0.6177" style="stop-color:#FBF1ED"/>
		<stop  offset="0.6827" style="stop-color:#F5DED5"/>
		<stop  offset="0.7499" style="stop-color:#EDC4B4"/>
		<stop  offset="0.8187" style="stop-color:#E2A18B"/>
		<stop  offset="0.8888" style="stop-color:#D5765C"/>
		<stop  offset="0.9587" style="stop-color:#C64130"/>
		<stop  offset="1" style="stop-color:#BD1D1D"/>
	</linearGradient>
	<rect x="946.7" y="781.5" class="st7" width="483.8" height="6.5"/>
</g>
<g>
	<g>
		<path class="st0" d="M2087.6,795.9v70.6h-9.1v-70.6H2087.6z"/>
		<path class="st0" d="M1736.7,795.3c5.6-0.8,12.2-1.5,19.4-1.5c13.1,0,22.4,3,28.6,8.8c6.3,5.8,10,13.9,10,25.4
			c0,11.5-3.6,21-10.2,27.5c-6.6,6.6-17.5,10.2-31.2,10.2c-6.5,0-11.9-0.3-16.6-0.8V795.3z M1745.8,857.8c2.3,0.4,5.7,0.5,9.2,0.5
			c19.5,0,30.1-10.9,30.1-30c0.1-16.7-9.3-27.2-28.6-27.2c-4.7,0-8.3,0.4-10.7,0.9V857.8z"/>
		<path class="st0" d="M1816.4,842.8l-7.3,22.2h-9.4l24-70.6h11l24.1,70.6h-9.7l-7.5-22.2H1816.4z M1839.6,835.7l-6.9-20.3
			c-1.6-4.6-2.6-8.8-3.7-12.9h-0.2c-1,4.2-2.2,8.5-3.6,12.8l-6.9,20.4H1839.6z"/>
		<path class="st0" d="M1891.3,795.3c4-0.8,10.3-1.5,16.7-1.5c9.1,0,15,1.6,19.4,5.1c3.7,2.7,5.9,6.9,5.9,12.5
			c0,6.8-4.5,12.8-11.9,15.5v0.2c6.7,1.7,14.6,7.2,14.6,17.7c0,6.1-2.4,10.7-6,14.1c-4.9,4.5-12.9,6.6-24.4,6.6
			c-6.3,0-11.1-0.4-14.1-0.8V795.3z M1900.4,824.3h8.3c9.6,0,15.3-5,15.3-11.8c0-8.3-6.3-11.5-15.5-11.5c-4.2,0-6.6,0.3-8.1,0.6
			V824.3z M1900.4,858.1c1.8,0.3,4.4,0.4,7.7,0.4c9.4,0,18.1-3.5,18.1-13.7c0-9.6-8.3-13.6-18.2-13.6h-7.5V858.1z"/>
		<path class="st0" d="M1984.7,831.9h-27.5v25.5h30.6v7.6h-39.7v-70.6h38.1v7.6h-29v22.3h27.5V831.9z"/>
		<path class="st0" d="M1999.7,865v-70.6h10l22.6,35.7c5.2,8.3,9.3,15.7,12.7,22.9l0.2-0.1c-0.8-9.4-1-18-1-29v-29.6h8.6V865h-9.2
			l-22.4-35.8c-4.9-7.9-9.6-15.9-13.2-23.6l-0.3,0.1c0.5,8.9,0.7,17.4,0.7,29.1V865H1999.7z"/>
		<path class="st0" d="M2124.3,802.1h-21.5v-7.8h52.3v7.8h-21.6V865h-9.2V802.1z"/>
		<path class="st0" d="M2220.5,829c0,24.3-14.8,37.2-32.8,37.2c-18.7,0-31.8-14.5-31.8-35.8c0-22.4,13.9-37.1,32.8-37.1
			C2208,793.2,2220.5,808,2220.5,829z M2165.7,830.1c0,15.1,8.2,28.6,22.5,28.6c14.5,0,22.6-13.3,22.6-29.3c0-14-7.3-28.7-22.5-28.7
			C2173.2,800.7,2165.7,814.6,2165.7,830.1z"/>
	</g>
	<linearGradient id="SVGID_5_" gradientUnits="userSpaceOnUse" x1="1900.4312" y1="765.5721" x2="2220.4587" y2="765.5721">
		<stop  offset="0" style="stop-color:#307F26"/>
		<stop  offset="1.081735e-02" style="stop-color:#39822C"/>
		<stop  offset="9.133628e-02" style="stop-color:#719E58"/>
		<stop  offset="0.1708" style="stop-color:#9CBA88"/>
		<stop  offset="0.2472" style="stop-color:#BFD2B2"/>
		<stop  offset="0.32" style="stop-color:#DBE5D4"/>
		<stop  offset="0.3882" style="stop-color:#EFF3EC"/>
		<stop  offset="0.4501" style="stop-color:#FBFCFA"/>
		<stop  offset="0.5" style="stop-color:#FFFFFF"/>
		<stop  offset="0.5557" style="stop-color:#FEFCFB"/>
		<stop  offset="0.6177" style="stop-color:#FBF1ED"/>
		<stop  offset="0.6827" style="stop-color:#F5DED5"/>
		<stop  offset="0.7499" style="stop-color:#EDC4B4"/>
		<stop  offset="0.8187" style="stop-color:#E2A18B"/>
		<stop  offset="0.8888" style="stop-color:#D5765C"/>
		<stop  offset="0.9587" style="stop-color:#C64130"/>
		<stop  offset="1" style="stop-color:#BD1D1D"/>
	</linearGradient>
	<rect x="1900.4" y="758" class="st8" width="320" height="15.1"/>
	<path class="st0" d="M1736.7,758.2c1-0.2,2.4-0.3,3.7-0.3c2.1,0,3.4,0.4,4.4,1.2c0.8,0.7,1.2,1.7,1.2,2.9c0,2-1.3,3.3-2.8,3.8v0.1
		c1.2,0.4,1.9,1.5,2.2,3c0.5,2.1,0.8,3.6,1.2,4.1h-2c-0.2-0.4-0.6-1.7-1-3.6c-0.4-2.1-1.3-2.9-3-2.9h-1.8v6.5h-1.9V758.2z
		 M1738.7,765.1h2c2.1,0,3.4-1.1,3.4-2.9c0-1.9-1.4-2.8-3.5-2.8c-0.9,0-1.6,0.1-1.9,0.2V765.1z"/>
	<path class="st0" d="M1755.2,758v15.1h-1.9V758H1755.2z"/>
	<path class="st0" d="M1762.8,770.7c0.9,0.5,2.1,1,3.5,1c2,0,3.2-1.1,3.2-2.6c0-1.4-0.8-2.2-2.8-3c-2.5-0.9-4-2.1-4-4.3
		c0-2.3,1.9-4.1,4.9-4.1c1.5,0,2.7,0.4,3.3,0.7l-0.5,1.6c-0.5-0.3-1.5-0.7-2.9-0.7c-2.1,0-2.8,1.2-2.8,2.3c0,1.4,0.9,2.1,3,2.9
		c2.5,1,3.8,2.2,3.8,4.4c0,2.3-1.7,4.3-5.3,4.3c-1.5,0-3-0.4-3.8-1L1762.8,770.7z"/>
	<path class="st0" d="M1781.4,759.7h-4.6V758h11.2v1.7h-4.6v13.4h-2V759.7z"/>
	<path class="st0" d="M1806.4,765.4c0,5.2-3.2,7.9-7,7.9c-4,0-6.8-3.1-6.8-7.6c0-4.8,3-7.9,7-7.9
		C1803.7,757.8,1806.4,760.9,1806.4,765.4z M1794.7,765.7c0,3.2,1.7,6.1,4.8,6.1c3.1,0,4.8-2.8,4.8-6.3c0-3-1.6-6.1-4.8-6.1
		C1796.3,759.4,1794.7,762.4,1794.7,765.7z"/>
	<path class="st0" d="M1813.4,758.2c1-0.2,2.4-0.3,3.7-0.3c2.1,0,3.4,0.4,4.4,1.2c0.8,0.7,1.2,1.7,1.2,2.9c0,2-1.3,3.3-2.8,3.8v0.1
		c1.2,0.4,1.9,1.5,2.2,3c0.5,2.1,0.8,3.6,1.2,4.1h-2c-0.2-0.4-0.6-1.7-1-3.6c-0.4-2.1-1.3-2.9-3-2.9h-1.8v6.5h-1.9V758.2z
		 M1815.3,765.1h2c2.1,0,3.4-1.1,3.4-2.9c0-1.9-1.4-2.8-3.5-2.8c-0.9,0-1.6,0.1-1.9,0.2V765.1z"/>
	<path class="st0" d="M1832.4,768.4l-1.6,4.7h-2l5.1-15.1h2.3l5.1,15.1h-2.1l-1.6-4.7H1832.4z M1837.3,766.8l-1.5-4.3
		c-0.3-1-0.6-1.9-0.8-2.7h0c-0.2,0.9-0.5,1.8-0.8,2.7l-1.5,4.4H1837.3z"/>
	<path class="st0" d="M1848.1,773.1V758h2.1l4.8,7.6c1.1,1.8,2,3.4,2.7,4.9l0,0c-0.2-2-0.2-3.8-0.2-6.2V758h1.8v15.1h-2l-4.8-7.6
		c-1.1-1.7-2.1-3.4-2.8-5l-0.1,0c0.1,1.9,0.2,3.7,0.2,6.2v6.4H1848.1z"/>
	<path class="st0" d="M1870.1,759.7h-4.6V758h11.2v1.7h-4.6v13.4h-2V759.7z"/>
	<path class="st0" d="M1890.6,766h-5.9v5.4h6.5v1.6h-8.5V758h8.1v1.6h-6.2v4.8h5.9V766z"/>
</g>
</svg>
